<svg width="1440" height="1024" viewBox="0 0 1440 1024" fill="none" xmlns="http://www.w3.org/2000/svg">
<g clip-path="url(#clip0_319_780)">
<mask id="mask0_319_780" style="mask-type:luminance" maskUnits="userSpaceOnUse" x="1094" y="647" width="445" height="419">
<path d="M1539 647H1094V1066H1539V647Z" fill="white"/>
</mask>
<g mask="url(#mask0_319_780)">
<g opacity="0.54">
<path d="M1538.92 856.5C1538.92 854.227 1538.92 851.954 1538.92 849.681C1536.26 739.484 1446.53 649.665 1336.53 647C1270.65 645.432 1211.51 674.667 1172.47 721.379C1149.63 748.654 1169.5 790.35 1205.02 790.35C1217.38 790.35 1229.19 784.942 1237.09 775.459C1260.48 747.557 1296 730.157 1335.59 731.411C1399.74 733.449 1452.16 785.726 1454.58 849.916C1454.66 852.111 1454.66 854.305 1454.66 856.422C1454.66 858.616 1454.66 860.732 1454.58 862.927C1452.16 927.195 1399.66 979.394 1335.59 981.432C1296.08 982.686 1260.48 965.286 1237.09 937.384C1229.19 927.901 1217.38 922.493 1205.02 922.493C1169.42 922.493 1149.63 964.189 1172.47 991.464C1211.51 1038.1 1270.65 1067.33 1336.53 1065.84C1446.53 1063.26 1536.26 973.438 1538.92 863.24C1538.92 860.967 1538.92 858.695 1538.92 856.422V856.5Z" fill="#26ABE2" fill-opacity="0.4"/>
<path d="M1214.25 866.375C1233.02 866.375 1250.08 869.981 1263.54 876.172C1266.35 877.426 1268.54 879.699 1270.03 882.364L1275.11 891.456C1277.3 895.296 1279.81 898.98 1282.62 902.35C1285.44 905.72 1288.57 908.855 1292.01 911.677C1295.45 914.498 1299.05 917.007 1302.96 919.123C1306.88 921.239 1310.87 923.042 1315.09 924.452C1319.32 925.863 1323.62 926.882 1328 927.509C1332.38 928.136 1336.84 928.371 1341.22 928.136C1345.68 927.901 1350.06 927.352 1354.37 926.333C1358.67 925.314 1362.89 923.904 1366.96 922.179C1371.03 920.455 1374.86 918.261 1378.54 915.753C1382.22 913.244 1385.66 910.423 1388.79 907.366C1391.92 904.231 1394.81 900.861 1397.32 897.256C1399.82 893.65 1402.01 889.81 1403.81 885.734C1405.61 881.659 1407.1 877.505 1408.11 873.194C1409.13 868.883 1409.83 864.494 1410.07 860.105C1410.3 855.716 1410.07 851.249 1409.6 846.86V847.016C1409.05 843.019 1408.19 839.1 1406.94 835.182C1405.77 831.341 1404.2 827.579 1402.4 823.974C1400.52 820.368 1398.41 816.92 1395.99 813.706C1393.56 810.493 1390.9 807.436 1387.93 804.615C1385.03 801.793 1381.83 799.285 1378.46 797.012C1375.1 794.739 1371.58 792.78 1367.9 791.134C1364.22 789.488 1360.39 788.077 1356.48 787.059C1352.57 786.04 1348.58 785.334 1344.51 784.942C1340.44 784.55 1336.45 784.55 1332.38 784.942C1328.31 785.256 1324.32 785.883 1320.41 786.902C1316.5 787.921 1312.67 789.175 1308.91 790.821C1305.23 792.466 1301.63 794.426 1298.27 796.62C1294.91 798.815 1291.7 801.323 1288.73 804.145C1285.75 806.966 1283.09 809.866 1280.59 813.158C1278.16 816.371 1275.97 819.82 1274.1 823.347C1272.22 826.952 1270.65 830.636 1269.4 834.476C1255.16 842.471 1235.68 847.33 1213.93 847.33C1196.57 847.33 1180.53 844.116 1167.54 838.787C1165.66 838.003 1164.18 836.592 1163 834.868C1159.8 830.244 1155.65 826.56 1150.64 823.817C1147.75 822.093 1144.62 820.839 1141.33 819.977C1139.38 819.506 1137.42 819.271 1135.39 819.114C1129.91 818.566 1124.51 819.193 1119.35 820.995C1114.11 822.798 1109.49 825.62 1105.5 829.46H1105.34L1102.53 832.595C1101.04 834.241 1099.71 836.122 1098.69 838.082C1097.44 840.276 1096.43 842.549 1095.64 844.9C1094.86 847.252 1094.31 849.681 1094 852.189C1093.69 854.697 1093.61 857.127 1093.84 859.635C1094 862.143 1094.47 864.573 1095.1 867.002C1095.8 869.432 1096.66 871.705 1097.76 873.978C1098.85 876.251 1100.18 878.289 1101.75 880.326C1103.31 882.286 1105.03 884.088 1106.91 885.734C1108.79 887.38 1110.82 888.791 1113.01 890.045C1119.97 893.964 1127.41 895.531 1135.39 894.748C1137.42 894.513 1139.38 894.199 1141.33 893.729C1147.51 892.161 1152.91 889.261 1157.6 885.029L1161.91 880.483C1161.91 880.483 1161.91 880.326 1162.06 880.326L1164.72 876.329C1178.18 870.137 1195.31 866.454 1214.01 866.454L1214.25 866.375Z" fill="url(#paint0_linear_319_780)" fill-opacity="0.6"/>
</g>
</g>
</g>
<g clip-path="url(#clip1_319_780)">
<mask id="mask1_319_780" style="mask-type:luminance" maskUnits="userSpaceOnUse" x="-99" y="-42" width="445" height="419">
<path d="M-99 377L346 377L346 -42L-99 -42L-99 377Z" fill="white"/>
</mask>
<g mask="url(#mask1_319_780)">
<g opacity="0.54">
<path d="M-98.922 167.5C-98.922 169.773 -98.922 172.046 -98.922 174.319C-96.262 284.516 -6.52698 374.335 103.471 377C169.345 378.568 228.491 349.333 267.53 302.621C290.375 275.346 270.503 233.65 234.984 233.65C222.623 233.65 210.81 239.058 202.908 248.541C179.516 276.443 143.997 293.843 104.41 292.589C40.258 290.551 -12.16 238.274 -14.585 174.084C-14.663 171.889 -14.663 169.695 -14.663 167.578C-14.663 165.384 -14.663 163.268 -14.585 161.073C-12.16 96.805 40.336 44.606 104.41 42.568C143.919 41.314 179.516 58.714 202.908 86.616C210.81 96.099 222.623 101.507 234.984 101.507C270.581 101.507 290.375 59.811 267.53 32.536C228.491 -14.098 169.345 -43.332 103.471 -41.843C-6.52698 -39.257 -96.262 50.562 -98.922 160.76C-98.922 163.033 -98.922 165.305 -98.922 167.578V167.5Z" fill="#26ABE2" fill-opacity="0.3"/>
<path d="M225.753 157.625C206.977 157.625 189.921 154.019 176.465 147.828C173.649 146.574 171.458 144.301 169.972 141.636L164.886 132.544C162.696 128.704 160.192 125.02 157.376 121.65C154.559 118.28 151.43 115.145 147.988 112.323C144.545 109.502 140.946 106.993 137.035 104.877C133.123 102.761 129.133 100.958 124.908 99.548C120.684 98.137 116.381 97.118 112 96.491C107.618 95.864 103.159 95.629 98.778 95.864C94.318 96.099 89.937 96.648 85.634 97.667C81.331 98.686 77.107 100.096 73.039 101.821C68.97 103.545 65.137 105.739 61.46 108.247C57.783 110.756 54.34 113.577 51.211 116.634C48.082 119.769 45.187 123.139 42.683 126.744C40.18 130.35 37.989 134.19 36.19 138.266C34.391 142.341 32.904 146.495 31.887 150.806C30.87 155.117 30.166 159.506 29.931 163.895C29.696 168.284 29.931 172.751 30.401 177.14V176.984C30.948 180.981 31.809 184.9 33.061 188.818C34.234 192.659 35.799 196.421 37.598 200.026C39.476 203.632 41.588 207.08 44.013 210.294C46.439 213.507 49.099 216.564 52.072 219.385C54.966 222.207 58.174 224.715 61.538 226.988C64.902 229.261 68.423 231.22 72.1 232.866C75.777 234.512 79.61 235.923 83.522 236.941C87.434 237.96 91.424 238.666 95.492 239.058C99.56 239.45 103.55 239.45 107.618 239.058C111.687 238.744 115.677 238.117 119.588 237.098C123.5 236.079 127.334 234.825 131.089 233.179C134.766 231.534 138.365 229.574 141.729 227.38C145.093 225.185 148.301 222.677 151.273 219.855C154.246 217.034 156.906 214.134 159.41 210.842C161.835 207.629 164.026 204.18 165.903 200.653C167.781 197.048 169.346 193.364 170.597 189.524C184.836 181.529 204.317 176.67 226.066 176.67C243.434 176.67 259.472 179.884 272.459 185.213C274.337 185.997 275.823 187.408 276.997 189.132C280.205 193.756 284.351 197.44 289.358 200.183C292.253 201.907 295.382 203.161 298.668 204.023C300.624 204.494 302.58 204.729 304.614 204.886C310.09 205.434 315.488 204.807 320.652 203.005C325.894 201.202 330.51 198.38 334.5 194.54H334.656L337.472 191.405C338.959 189.759 340.289 187.878 341.306 185.918C342.558 183.724 343.575 181.451 344.357 179.1C345.139 176.748 345.687 174.319 346 171.811C346.313 169.303 346.391 166.873 346.157 164.365C346 161.857 345.531 159.427 344.905 156.998C344.201 154.568 343.34 152.295 342.245 150.022C341.149 147.749 339.819 145.711 338.255 143.674C336.69 141.714 334.969 139.912 333.091 138.266C331.214 136.62 329.18 135.209 326.989 133.955C320.026 130.036 312.594 128.469 304.614 129.252C302.58 129.487 300.624 129.801 298.668 130.271C292.487 131.839 287.089 134.739 282.395 138.971L278.092 143.517C278.092 143.517 278.092 143.674 277.936 143.674L275.276 147.671C261.819 153.863 244.686 157.546 225.988 157.546L225.753 157.625Z" fill="url(#paint1_linear_319_780)" fill-opacity="0.5"/>
</g>
</g>
</g>
<defs>
<linearGradient id="paint0_linear_319_780" x1="1303" y1="771" x2="1326.6" y2="915.984" gradientUnits="userSpaceOnUse">
<stop stop-color="#DC1744"/>
<stop offset="1" stop-color="#DC1744" stop-opacity="0"/>
</linearGradient>
<linearGradient id="paint1_linear_319_780" x1="137" y1="253" x2="113.401" y2="108.016" gradientUnits="userSpaceOnUse">
<stop stop-color="#DC1744"/>
<stop offset="1" stop-color="#DC1744" stop-opacity="0"/>
</linearGradient>
<clipPath id="clip0_319_780">
<rect width="346" height="377" fill="white" transform="translate(1094 647)"/>
</clipPath>
<clipPath id="clip1_319_780">
<rect width="346" height="377" fill="white" transform="matrix(-1 0 0 -1 346 377)"/>
</clipPath>
</defs>
</svg>
